HIERARCHY
ROOT Hip
{
    OFFSET 0.0 0.0 0.0
    CHANNELS 6 Xposition Yposition Zposition Zrotation Xrotation Yrotation
    JOINT RightHip
    {
        OFFSET -0.09444328397512436 0.0 0.0
        CHANNELS 3 Zrotation Xrotation Yrotation
        JOINT RightKnee
        {
            OFFSET 0.0 0.0 -0.34391456842422485
            CHANNELS 3 Zrotation Xrotation Yrotation
            JOINT RightAnkle
            {
                OFFSET 0.0 0.0 -0.33238762617111206
                CHANNELS 3 Zrotation Xrotation Yrotation
                End Site
                {
                    OFFSET 0.0 -0.13295507431030273 0.0
                }
            }
        }
    }
    JOINT LeftHip
    {
        OFFSET 0.09444328397512436 0.0 0.0
        CHANNELS 3 Zrotation Xrotation Yrotation
        JOINT LeftKnee
        {
            OFFSET 0.0 0.0 -0.34391456842422485
            CHANNELS 3 Zrotation Xrotation Yrotation
            JOINT LeftAnkle
            {
                OFFSET 0.0 0.0 -0.33238762617111206
                CHANNELS 3 Zrotation Xrotation Yrotation
                End Site
                {
                    OFFSET 0.0 -0.13295507431030273 0.0
                }
            }
        }
    }
    JOINT Spine
    {
        OFFSET 0.0 0.0 0.17098607122898102
        CHANNELS 3 Zrotation Xrotation Yrotation
        JOINT Thorax
        {
            OFFSET 0.0 0.0 0.1914195716381073
            CHANNELS 3 Zrotation Xrotation Yrotation
            JOINT Neck
            {
                OFFSET 0.0 0.0 0.08361135423183441
                CHANNELS 3 Zrotation Xrotation Yrotation
                End Site
                {
                    OFFSET 0.0 0.0 0.03344454616308212
                }
            }
            JOINT LeftShoulder
            {
                OFFSET 0.12650877237319946 0.0 0.0
                CHANNELS 3 Zrotation Xrotation Yrotation
                JOINT LeftElbow
                {
                    OFFSET 0.20385046303272247 0.0 0.0
                    CHANNELS 3 Zrotation Xrotation Yrotation
                    JOINT LeftWrist
                    {
                        OFFSET 0.19310639798641205 0.0 0.0
                        CHANNELS 3 Zrotation Xrotation Yrotation
                        End Site
                        {
                            OFFSET 0.07724256813526154 0.0 0.0
                        }
                    }
                }
            }
            JOINT RightShoulder
            {
                OFFSET -0.12650877237319946 0.0 0.0
                CHANNELS 3 Zrotation Xrotation Yrotation
                JOINT RightElbow
                {
                    OFFSET -0.20385046303272247 0.0 0.0
                    CHANNELS 3 Zrotation Xrotation Yrotation
                    JOINT RightWrist
                    {
                        OFFSET -0.19310639798641205 0.0 0.0
                        CHANNELS 3 Zrotation Xrotation Yrotation
                        End Site
                        {
                            OFFSET -0.07724256813526154 0.0 0.0
                        }
                    }
                }
            }
        }
    }
}
MOTION
Frames: 11
Frame Time: 0.016666666666666666
0.0 0.0 0.47502535581588745 -177.4158453161918 1.185437124939303 -16.129993366244783 12.943298718950938 -40.346687431022396 68.5897140182006 75.32971799465925 38.06978339407533 -36.402466948080935 3.1805546814635168e-15 0.0 0.0 31.988734874352446 -64.40537818432273 13.4877381233076 -23.001460197462215 43.069422504407 -5.830942913121976 7.951386703658792e-16 0.0 0.0 -4.226487600070393 16.43104107093065 -8.365530909934082 -21.31577662934786 -2.189804893086283e-06 -2.2250181938114424e-06 -24.257996859019908 26.379323883115227 14.296091160440874 -1.5040634623427247 31.844124630191 19.838250003209627 -71.28961430784828 9.249536346961664e-07 -1.5884817454450073e-06 1.2722218725854067e-14 0.0 0.0 -20.902709928664652 17.36461031880777 21.814868731716313 46.33706776464584 4.1719233265518385e-06 -3.4905175229580326e-08 1.590277340731758e-15 4.4139062980501586e-32 3.180554681463516e-15
0.0 0.0 0.4634840786457062 -176.56889649627828 -1.1570318506814814 -13.712568716401186 8.771369022373936 -34.6192767756224 64.53790186091331 77.55762999312198 37.8467272946198 -34.99130947095101 3.1805546814635168e-15 1.7655625192200634e-31 6.3611093629270335e-15 26.210116508040485 -63.97536106712994 7.059172452694171 -23.343777272535835 42.9135867532764 -1.497515590096279 1.5902773407317584e-15 0.0 0.0 -2.8337074399607984 13.43203779141675 -9.779409961152787 -22.740810276899932 -1.3229108907643689e-06 2.202172114459643e-06 -40.092864195566854 29.57792624451117 23.626336401833488 2.3441555358090014 30.65380341147412 18.477489981139364 -70.18178047409235 1.3373340285967795e-06 -1.8912173234471068e-06 0.0 0.0 -3.1805546814635168e-15 -16.53217740088693 11.12340915901664 28.553736902680626 41.14015532044127 4.041086779707072e-07 8.435008508003227e-07 8.827812596100317e-32 -6.361109362927033e-15 1.5902773407317582e-15
0.0 0.0 0.4666590988636017 -175.71813706498628 -2.501869984292499 -12.847461278961303 6.7544810644738265 -29.645102933601354 62.65320420448022 78.72807196106717 37.77104153916498 -34.038980092570995 0.0 0.0 6.3611093629270335e-15 22.939391176173885 -63.34646173879122 4.081805968677814 -23.224954072613464 43.26128928319174 2.3946787418994595 0.0 0.0 6.361109362927033e-15 -2.3621397929149497 12.461414775260213 -9.779715769304115 -23.77228046332422 -5.955514514377674e-08 2.1911257594475827e-07 -41.494724970340265 29.339044533090313 24.203728648526873 2.482279727615399 29.066869057012795 19.0419089036171 -70.38368203476159 1.810953073557948e-07 4.205849636962072e-06 0.0 0.0 0.0 -7.876168099225516 -1.6181703996098373 29.206357307633922 37.764334781197654 7.251704031783053e-07 -1.1852856096147408e-07 0.0 0.0 0.0
0.0 0.0 0.4441218078136444 -172.94451982792836 -6.086610478758162 -11.766503516486031 3.223391400558252 -12.865674557527564 58.82463246496513 75.08115694063561 38.14517849420512 -30.5958400738927 0.0 0.0 6.3611093629270335e-15 16.416742172767936 -59.91113860505091 0.7984968219209039 -20.529914850537242 44.29478525235418 6.2166829613582095 0.0 3.1805546814635164e-15 0.0 -1.885034336755062 11.871285135746033 -6.1524024294557895 -24.211269142917732 -5.665902206273893e-07 -2.7817041727404474e-07 -17.309846599158007 6.87006961493637 15.004404469196427 0.3180065917463734 17.617985412615067 20.833639953434574 -73.30820082465841 7.104148790987763e-07 -2.426670850987776e-06 0.0 0.0 0.0 16.64729299256612 -37.34092936411882 32.9958001352489 43.68438022927383 1.2552917564612126e-06 -1.4127368392334043e-06 3.1805546814635168e-15 8.827812596100317e-32 3.1805546814635168e-15
0.0 0.0 0.44281432032585144 -171.5211990069099 -7.258970199922435 -11.70004099206983 2.3734277091218394 -5.738916151533503 57.476405608208815 72.77299780809469 39.124653123982974 -29.89487523456805 3.1805546814635168e-15 6.3611093629270335e-15 -1.7655625192200634e-31 15.604716201792238 -58.561004001955354 2.286132054280573 -18.931086096249494 45.287088869764105 5.917297530682679 1.5902773407317584e-15 0.0 0.0 -2.0020023275596515 12.383562356118874 -3.5876851481337364 -23.92362262887206 -7.027960052851016e-07 -1.1431391807477577e-06 -11.525524078599659 2.353986511545616 13.661958278268914 -1.6395405456040602 11.828284726158287 22.348473459967185 -75.19272029323736 -3.2849943316757732e-06 3.107063362007499e-07 6.3611093629270335e-15 -1.5902773407317584e-15 8.827812596100317e-32 31.732182122062458 -53.62664864129436 41.21673314113788 56.88189155714669 -8.789944177164133e-07 4.568612336012177e-06 0.0 0.0 0.0
0.0 0.0 0.44457414746284485 -167.74875863302185 -9.560298015573167 -9.343906818342758 0.6598903386889055 7.2973516951470865 54.41570686938645 60.969819809327184 40.228852006438316 -25.55304231372362 0.0 0.0 -1.2722218725854067e-14 15.403811449350018 -56.898982615124964 7.077607068441578 -14.916556700106211 47.42750132365089 0.8015769882731856 -1.5902773407317584e-15 0.0 0.0 -2.486187577064448 14.32365296296638 1.6267486071057309 -22.33804747595308 -2.751528388775302e-07 3.7098707259913614e-07 -5.554818381145718 -1.7392407181716252 7.4935774406295685 -4.783687708166061 -2.5757334140778982 30.72720722662876 -81.69446099636244 -2.304410185783735e-06 -1.2907567281452993e-06 6.3611093629270335e-15 0.0 0.0 26.334868265426405 -65.87336032199919 30.76686220905461 69.6382458192152 -2.1034847799714894e-06 1.0556930161126698e-06 0.0 6.3611093629270335e-15 0.0
0.0 0.0 0.445306658744812 -165.31770601339213 -10.583559383486067 -7.065040969746029 -0.11798346381969041 13.156984550867591 52.23910974904688 53.85870015492185 40.22170490330284 -23.623015055093415 -3.1805546814635164e-15 0.0 0.0 14.891326442764239 -56.56052367425894 9.261759552212997 -12.336398237907146 48.47080545739635 -3.7029253166722844 0.0 0.0 0.0 -2.7360589380293914 15.828598155346127 3.600749560698706 -21.053786646786396 -3.2131297000067375e-07 2.9572812341821604e-08 -2.9684824552888642 -3.7604751756382684 3.465251926944207 -8.383183938485406 -4.992485693583031 35.00733145496516 -87.4450223575001 -4.652632484160241e-06 1.4640864800223343e-06 0.0 0.0 3.1805546814635168e-15 9.791308518714297 -72.08553156081206 13.59145354214434 76.73753609940287 1.5944625190815558e-07 -4.276301691413342e-06 0.0 -6.361109362927033e-15 0.0
0.0 0.0 0.4484400153160095 -158.79991471763947 -12.680607789506968 -1.045740746656888 -1.3381980056937912 23.785352236211327 45.247085630763145 42.616136222316456 41.3128219327731 -19.884867257267437 3.1805546814635164e-15 -1.7655625192200634e-31 -6.361109362927033e-15 12.529320362873579 -55.43462506416142 12.74093350099805 -5.127235887859348 48.296013809539495 -15.22883440689909 0.0 0.0 -3.1805546814635168e-15 -2.849046862595319 18.769215435540673 6.488192362803077 -18.54622835508256 -4.191302915413814e-07 9.435323162667714e-08 -0.5559198078500369 -8.38108888808717 -3.6906837850177263 -17.605730462964544 -3.8841839737744177 39.546347884167055 -86.83133627018245 1.1638715237257145e-06 1.5654537852669222e-08 -6.3611093629270335e-15 3.1805546814635168e-15 3.1805546814635168e-15 -25.3297315193297 -69.05923371487039 -15.747516918917624 80.66607852231692 -4.500741237152496e-06 -1.998211483645847e-06 -6.361109362927032e-15 -6.361109362927032e-15 -6.361109362927032e-15
0.0 0.0 0.44405195116996765 -155.9204065715715 -12.837690380402824 2.3267130538513343 -1.294602805792887 26.642248085283246 40.38651408918267 38.13933807686689 42.51187954670549 -17.098223167270636 -6.361109362927032e-15 0.0 0.0 9.842859981251658 -55.27207186974705 11.897622060872031 -2.193192754259102 47.52791866964398 -20.10913241380968 0.0 0.0 0.0 -2.569508287820589 20.64480909049541 8.212690380551086 -11.853506726345083 -4.896179494253425e-09 1.17610120077759e-07 -1.8457331093275782 -13.53688596820588 -4.217870504769068 -33.416440511285906 -1.8673967793487154 48.73114068660864 -119.86445853076943 -6.017767711941597e-07 1.837094882079157e-06 -2.648343778830095e-31 6.3611093629270335e-15 4.770832022195275e-15 -43.03344241361179 -67.7360756441943 -24.845862593269143 76.62554341129044 3.487571540215096e-07 2.1096737440874366e-06 -6.3611093629270335e-15 6.3611093629270335e-15 6.3611093629270335e-15
0.0 0.0 0.44978365302085876 -151.1432272543446 -13.045989861144843 7.238627220635061 0.19540579793517002 28.045207736959266 32.66763533129165 38.82654406153428 48.33209005786749 -18.909855915542092 0.0 -6.3611093629270335e-15 0.0 6.6075310987428795 -53.49996533953595 14.858444111970563 4.308866204988143 44.85085891894872 -31.540330591535785 0.0 0.0 0.0 -2.065431657748898 23.877929246945673 8.756185834487718 -13.158463897533396 9.852701286121069e-08 1.935553306760465e-06 0.8292495592768573 -15.15045261943766 -4.999743468071838 -30.263877526052624 -8.896112207086235 46.51192227511154 -82.39783876072349 1.2149486797885357e-06 2.6035521463947468e-06 -8.827812596100317e-32 3.1805546814635168e-15 3.1805546814635168e-15 -26.797087059682895 -55.69665991607373 -11.980447636413041 64.69657250009112 -3.0798917503027006e-06 4.823635753513761e-06 6.3611093629270335e-15 -3.1805546814635168e-15 3.1805546814635168e-15
0.0 0.0 0.45317012071609497 -151.24422173901314 -11.586539641410814 11.942866474467168 2.0719848125400975 18.957747733696984 25.233912995254904 50.347823081785776 57.289388355744684 -26.39493236584815 0.0 0.0 -6.3611093629270335e-15 2.149749772871432 -53.54082523896289 10.210903573870556 4.834834344653762 42.173903553537535 -34.908370524281075 0.0 0.0 0.0 -0.47125205373823986 27.466202386191497 9.964631569425048 -12.74035555912774 5.399483509465331e-07 -1.3128399972944378e-07 2.1699675667520273 -20.842423992406275 -5.230005242428817 -34.44361035264332 -10.08844086219078 44.481654739743036 -81.25721861590763 2.977009158892019e-07 2.908444637817616e-06 0.0 0.0 -3.1805546814635168e-15 -11.749968013966877 -38.00870548669328 -4.426378486916718 38.26507960206749 -1.2622209609072707e-06 -5.294766261774604e-06 0.0 0.0 0.0
